<svg width="29" height="21" viewBox="0 0 29 21" fill="none" xmlns="http://www.w3.org/2000/svg">
<path fill-rule="evenodd" clip-rule="evenodd" d="M28.8817 15.9634C28.7043 15.7215 28.4624 15.6058 28.1339 15.6058C27.4466 15.6058 27.2401 15.9505 27.0942 17.3418C27.0685 17.5862 27.0276 17.7665 27.0032 17.7423C26.9787 17.7182 26.8028 17.3953 26.6122 17.0248C26.1445 16.1156 25.0487 14.2938 24.473 13.4682C20.352 7.55891 14.4165 3.32511 7.25696 1.18791C5.09413 0.542285 2.74745 0.0844008 1.25067 0.0160172C0.581961 -0.0145372 0.527029 -0.0092561 0.358669 0.102346C-0.0202217 0.353517 -0.111107 0.777775 0.14451 1.10223C0.3244 1.33066 0.515369 1.38897 1.36948 1.47627C4.85684 1.83274 8.87482 3.07086 12.2556 4.83078C15.3519 6.44262 18.255 8.67083 20.5722 11.214C22.4708 13.2977 24.29 16.029 25.5476 18.6841C25.7523 19.1164 25.7546 19.1299 25.6186 19.0973C25.5412 19.0787 24.7152 18.7527 23.7829 18.3727C22.8506 17.9928 22.001 17.6661 21.8948 17.6467C21.2711 17.5327 20.6979 18.196 21 18.6821C21.1459 18.9168 21.2548 18.9699 23.2107 19.759C25.9765 20.875 27.1235 21.1739 27.6278 20.9105C28.0759 20.6764 28.5199 19.5946 28.7148 18.2618C28.7731 17.863 28.863 17.2709 28.9146 16.9461C29.0338 16.1951 29.033 16.1699 28.8817 15.9634Z" fill="white"/>
</svg>
