<svg width="92" height="92" viewBox="0 0 92 92" fill="none" xmlns="http://www.w3.org/2000/svg">
<path d="M46 23.0001V84.3334M46 23.0001H32.4464C30.4494 23.0001 28.5342 22.1923 27.1221 20.7546C25.71 19.3168 24.9167 17.3667 24.9167 15.3334C24.9167 13.3001 25.71 11.35 27.1221 9.91226C28.5342 8.47448 30.4494 7.66675 32.4464 7.66675C42.9881 7.66675 46 23.0001 46 23.0001ZM46 23.0001H59.5536C61.5506 23.0001 63.4658 22.1923 64.8779 20.7546C66.29 19.3168 67.0833 17.3667 67.0833 15.3334C67.0833 13.3001 66.29 11.35 64.8779 9.91226C63.4658 8.47448 61.5506 7.66675 59.5536 7.66675C49.0119 7.66675 46 23.0001 46 23.0001ZM76.6667 42.1668V72.0668C76.6667 76.3605 76.6667 78.5074 75.8311 80.1474C75.096 81.5899 73.9232 82.7628 72.4806 83.4978C70.8406 84.3334 68.6937 84.3334 64.4 84.3334L27.6 84.3334C23.3063 84.3334 21.1594 84.3334 19.5194 83.4978C18.0768 82.7628 16.904 81.5899 16.169 80.1473C15.3333 78.5074 15.3333 76.3605 15.3333 72.0668V42.1668M7.66667 29.1334L7.66667 36.0334C7.66667 38.1803 7.66667 39.2537 8.08448 40.0737C8.45199 40.795 9.03842 41.3814 9.7597 41.7489C10.5797 42.1667 11.6531 42.1668 13.8 42.1668L78.2 42.1668C80.3469 42.1668 81.4203 42.1668 82.2403 41.7489C82.9616 41.3814 83.548 40.795 83.9155 40.0737C84.3333 39.2537 84.3333 38.1803 84.3333 36.0334V29.1334C84.3333 26.9866 84.3333 25.9131 83.9155 25.0931C83.548 24.3718 82.9616 23.7854 82.2403 23.4179C81.4203 23.0001 80.3469 23.0001 78.2 23.0001L13.8 23.0001C11.6531 23.0001 10.5797 23.0001 9.75971 23.4179C9.03842 23.7854 8.45199 24.3718 8.08448 25.0931C7.66667 25.9131 7.66667 26.9865 7.66667 29.1334Z" stroke="white" stroke-width="4" stroke-linecap="round" stroke-linejoin="round"/>
</svg>
