<svg width="13" height="14" viewBox="0 0 13 14" fill="none" xmlns="http://www.w3.org/2000/svg">
<path d="M0.560433 7.56868H3.06701C3.08852 7.56868 3.12532 7.58979 3.12532 7.64133V13.6273C3.12532 13.679 3.08841 13.7 3.06701 13.7H0.560433C0.538951 13.7 0.502148 13.6789 0.502148 13.6273V7.6412C0.502887 7.58885 0.540171 7.56868 0.560433 7.56868Z" fill="#325279" stroke="#325279" stroke-width="0.6"/>
<path d="M7.74159 1.00002H7.75829C8.42782 1.01265 8.64188 1.65687 8.64188 1.65687C8.64188 1.65687 9.21424 2.83167 8.67983 4.26857C8.22892 5.48282 8.13631 5.58073 8.13631 5.58073C8.13631 5.58073 7.99057 5.80021 8.45211 5.79074C8.45211 5.79074 11.2699 5.7781 11.3671 5.7781C11.5751 5.7781 12.2385 5.97547 12.2006 6.85498C12.1733 7.50553 11.7846 7.73292 11.5857 7.80713C11.5599 7.81661 11.5462 7.8466 11.5568 7.87344C11.5614 7.8845 11.569 7.89398 11.5796 7.9003C11.7831 8.02346 12.1991 8.33452 12.1899 8.81138C12.1778 9.3893 11.9546 9.60247 11.49 9.7351C11.4642 9.74142 11.4475 9.76984 11.4551 9.79668C11.4582 9.81089 11.4673 9.82195 11.4779 9.82826C11.654 9.93248 11.9561 10.1867 11.9379 10.7014C11.9197 11.2257 11.5553 11.4104 11.3564 11.4736C11.3306 11.4815 11.3155 11.5099 11.323 11.5367C11.3261 11.5478 11.3337 11.5589 11.3428 11.5652C11.4688 11.6552 11.6555 11.8589 11.6464 12.2773C11.6419 12.4984 11.5705 12.6594 11.4809 12.7747C11.3397 12.9563 11.1181 13.051 10.8934 13.0526L4.6414 13.0652C4.63989 13.0637 4.30132 13.0652 4.30132 12.5931V8.30451C4.30282 7.24815 4.58673 6.21391 5.12266 5.31703C5.44908 4.77385 6.18086 3.90382 6.59077 3.4538C6.68187 3.35274 7.01283 3.05588 7.01283 2.89324C7.01283 2.68482 7.03561 2.34849 7.0432 1.72162C7.04776 1.32371 7.359 0.996865 7.74159 1.00002Z" fill="#EEF1F7" stroke="#325279" stroke-width="0.6"/>
</svg>
