<svg width="29" height="21" viewBox="0 0 29 21" fill="none" xmlns="http://www.w3.org/2000/svg">
<path fill-rule="evenodd" clip-rule="evenodd" d="M0.118317 15.9634C0.295681 15.7215 0.537565 15.6058 0.866123 15.6058C1.55343 15.6058 1.75994 15.9505 1.90582 17.3418C1.93148 17.5862 1.97242 17.7665 1.99684 17.7423C2.02126 17.7182 2.1972 17.3953 2.38778 17.0248C2.85548 16.1156 3.95128 14.2938 4.52703 13.4682C8.648 7.55891 14.5835 3.32511 21.743 1.18791C23.9059 0.542285 26.2525 0.0844008 27.7493 0.0160172C28.418 -0.0145372 28.473 -0.0092561 28.6413 0.102346C29.0202 0.353517 29.1111 0.777775 28.8555 1.10223C28.6756 1.33066 28.4846 1.38897 27.6305 1.47627C24.1432 1.83274 20.1252 3.07086 16.7444 4.83078C13.6481 6.44262 10.745 8.67083 8.42782 11.214C6.52915 13.2977 4.70997 16.029 3.45242 18.6841C3.24765 19.1164 3.24538 19.1299 3.38142 19.0973C3.45877 19.0787 4.28482 18.7527 5.21706 18.3727C6.14935 17.9928 6.99899 17.6661 7.10516 17.6467C7.72892 17.5327 8.30215 18.196 7.99995 18.6821C7.85414 18.9168 7.74518 18.9699 5.78931 19.759C3.02345 20.875 1.87654 21.1739 1.37224 20.9105C0.9241 20.6764 0.480106 19.5946 0.285187 18.2618C0.226886 17.863 0.136973 17.2709 0.0854089 16.9461C-0.0338488 16.1951 -0.0330067 16.1699 0.118317 15.9634Z" fill="white"/>
</svg>
