<svg width="92" height="92" viewBox="0 0 92 92" fill="none" xmlns="http://www.w3.org/2000/svg">
<path d="M46 22.9998V84.3332M46 22.9998H32.4464C30.4494 22.9998 28.5342 22.1921 27.1221 20.7543C25.71 19.3165 24.9167 17.3665 24.9167 15.3332C24.9167 13.2998 25.71 11.3498 27.1221 9.91202C28.5342 8.47424 30.4494 7.6665 32.4464 7.6665C42.9881 7.6665 46 22.9998 46 22.9998ZM46 22.9998H59.5536C61.5506 22.9998 63.4658 22.1921 64.8779 20.7543C66.29 19.3165 67.0833 17.3665 67.0833 15.3332C67.0833 13.2998 66.29 11.3498 64.8779 9.91202C63.4658 8.47424 61.5506 7.6665 59.5536 7.6665C49.0119 7.6665 46 22.9998 46 22.9998ZM76.6667 42.1665V72.0665C76.6667 76.3603 76.6667 78.5071 75.8311 80.1471C75.096 81.5897 73.9232 82.7625 72.4806 83.4976C70.8406 84.3332 68.6937 84.3332 64.4 84.3332L27.6 84.3332C23.3063 84.3332 21.1594 84.3332 19.5194 83.4976C18.0768 82.7625 16.904 81.5897 16.1689 80.1471C15.3333 78.5071 15.3333 76.3602 15.3333 72.0665V42.1665M7.66666 29.1332L7.66666 36.0332C7.66666 38.18 7.66666 39.2535 8.08446 40.0735C8.45198 40.7948 9.0384 41.3812 9.75969 41.7487C10.5797 42.1665 11.6531 42.1665 13.8 42.1665L78.2 42.1665C80.3469 42.1665 81.4203 42.1665 82.2403 41.7487C82.9616 41.3812 83.548 40.7948 83.9155 40.0735C84.3333 39.2535 84.3333 38.18 84.3333 36.0332V29.1332C84.3333 26.9863 84.3333 25.9129 83.9155 25.0929C83.548 24.3716 82.9616 23.7852 82.2403 23.4177C81.4203 22.9998 80.3469 22.9998 78.2 22.9998L13.8 22.9998C11.6531 22.9998 10.5797 22.9998 9.75969 23.4176C9.03841 23.7852 8.45198 24.3716 8.08447 25.0929C7.66666 25.9129 7.66666 26.9863 7.66666 29.1332Z" stroke="white" stroke-width="4" stroke-linecap="round" stroke-linejoin="round"/>
<path d="M46 22.9998V84.3332M46 22.9998H32.4464C30.4494 22.9998 28.5342 22.1921 27.1221 20.7543C25.71 19.3165 24.9167 17.3665 24.9167 15.3332C24.9167 13.2998 25.71 11.3498 27.1221 9.91202C28.5342 8.47424 30.4494 7.6665 32.4464 7.6665C42.9881 7.6665 46 22.9998 46 22.9998ZM46 22.9998H59.5536C61.5506 22.9998 63.4658 22.1921 64.8779 20.7543C66.29 19.3165 67.0833 17.3665 67.0833 15.3332C67.0833 13.2998 66.29 11.3498 64.8779 9.91202C63.4658 8.47424 61.5506 7.6665 59.5536 7.6665C49.0119 7.6665 46 22.9998 46 22.9998ZM76.6667 42.1665V72.0665C76.6667 76.3603 76.6667 78.5071 75.8311 80.1471C75.096 81.5897 73.9232 82.7625 72.4806 83.4976C70.8406 84.3332 68.6937 84.3332 64.4 84.3332L27.6 84.3332C23.3063 84.3332 21.1594 84.3332 19.5194 83.4976C18.0768 82.7625 16.904 81.5897 16.1689 80.1471C15.3333 78.5071 15.3333 76.3602 15.3333 72.0665V42.1665M7.66666 29.1332L7.66666 36.0332C7.66666 38.18 7.66666 39.2535 8.08446 40.0735C8.45198 40.7948 9.0384 41.3812 9.75969 41.7487C10.5797 42.1665 11.6531 42.1665 13.8 42.1665L78.2 42.1665C80.3469 42.1665 81.4203 42.1665 82.2403 41.7487C82.9616 41.3812 83.548 40.7948 83.9155 40.0735C84.3333 39.2535 84.3333 38.18 84.3333 36.0332V29.1332C84.3333 26.9863 84.3333 25.9129 83.9155 25.0929C83.548 24.3716 82.9616 23.7852 82.2403 23.4177C81.4203 22.9998 80.3469 22.9998 78.2 22.9998L13.8 22.9998C11.6531 22.9998 10.5797 22.9998 9.75969 23.4176C9.03841 23.7852 8.45198 24.3716 8.08447 25.0929C7.66666 25.9129 7.66666 26.9863 7.66666 29.1332Z" stroke="url(#paint0_linear_73_7556)" stroke-width="4" stroke-linecap="round" stroke-linejoin="round"/>
<defs>
<linearGradient id="paint0_linear_73_7556" x1="8.76661" y1="44.055" x2="83.7834" y2="44.055" gradientUnits="userSpaceOnUse">
<stop stop-color="#3DFAB6"/>
<stop offset="1" stop-color="#138EFF"/>
</linearGradient>
</defs>
</svg>
